# xmcd
#
# Track frame offsets:
# 150
# 31079
# 37639
# 42796
# 53503
# 60259
# 64755
# 74274
# 131500
# 133593
# 138340
# 146792
# 162031
# 180977
# 188843
# 206564
# 223754
# 244186
# 250972
# 256889
# 272705
# 295752
# 304279
# 317062
# 321989
#
# Disc length: 4462 seconds
#
#
# Revision: 1
# Processed by: cddbd v1.5.2PL0 Copyright (c) Steve Scherf et al.
# Submitted via: FreeRIP 2.96 
#
DISCID=6c116c19
DTITLE=James Bond (Casino Royale) - James Bond (Casino Royale)
DYEAR=2006
DGENRE=Soundtrack
TTITLE0=James Bond (Casino Royale) - 01 - David Arnold - African Rundown
TTITLE1=James Bond (Casino Royale) - 02 - David Arnold - Nothing Sinister
TTITLE2=James Bond (Casino Royale) - 03 - David Arnold - Unauthorised Access
TTITLE3=James Bond (Casino Royale) - 04 - David Arnold - Blunt Instrument
TTITLE4=James Bond (Casino Royale) - 05 - David Arnold - CCTV
TTITLE5=James Bond (Casino Royale) - 06 - David Arnold - Solange
TTITLE6=James Bond (Casino Royale) - 07 - David Arnold - Trip Aces
TTITLE7=James Bond (Casino Royale) - 08 - David Arnold - Miami International
TTITLE8=James Bond (Casino Royale) - 09 - David Arnold - I'm The Money
TTITLE9=James Bond (Casino Royale) - 10 - David Arnold - Aston Montenegro
TTITLE10=James Bond (Casino Royale) - 11 - David Arnold - Dinner Jackets
TTITLE11=James Bond (Casino Royale) - 12 - David Arnold - The Tell
TTITLE12=James Bond (Casino Royale) - 13 - David Arnold - Stairwell Fight
TTITLE13=James Bond (Casino Royale) - 14 - David Arnold - Vesper
TTITLE14=James Bond (Casino Royale) - 15 - David Arnold - Bond Loses It All
TTITLE15=James Bond (Casino Royale) - 16 - David Arnold - Dirty Martini
TTITLE16=James Bond (Casino Royale) - 17 - David Arnold - Bond Wins It All
TTITLE17=James Bond (Casino Royale) - 18 - David Arnold - The End Of An Aston Martin
TTITLE18=James Bond (Casino Royale) - 19 - David Arnold - The Bad Die Young
TTITLE19=James Bond (Casino Royale) - 20 - David Arnold - City Of Lovers
TTITLE20=James Bond (Casino Royale) - 21 - David Arnold - The Switch
TTITLE21=James Bond (Casino Royale) - 22 - David Arnold - Fall Of A House In Venice
TTITLE22=James Bond (Casino Royale) - 23 - David Arnold - Death Of Vesper
TTITLE23=James Bond (Casino Royale) - 24 - David Arnold - The Bitch Is Dead
TTITLE24=James Bond (Casino Royale) - 25 - David Arnold - The Name's Bond... James Bond
EXTD=
EXTT0=
EXTT1=
EXTT2=
EXTT3=
EXTT4=
EXTT5=
EXTT6=
EXTT7=
EXTT8=
EXTT9=
EXTT10=
EXTT11=
EXTT12=
EXTT13=
EXTT14=
EXTT15=
EXTT16=
EXTT17=
EXTT18=
EXTT19=
EXTT20=
EXTT21=
EXTT22=
EXTT23=
EXTT24=
PLAYORDER=
